<svg xmlns="http://www.w3.org/2000/svg" viewBox="0 0 18.19 18.19">
    <rect fill="#f7f7f7" width="18.19" height="18.19" />
    <path fill="#484746" d="M6.57,14.63c-1,0-1.19-.41-.68-1.24l.83-1.34,1.6-2.59L6.16,6c-.54-.85-.31-1.28.7-1.28A1.21,1.21,0,0,1,8,5.36l.81,1.37c.19.36.5.91.94,1.65h.07c.12-.25.31-.62.56-1.11l.27-.54.7-1.34a1.14,1.14,0,0,1,1.08-.66c.95,0,1.17.41.68,1.24L10.84,9.7l2.36,3.65c.56.85.33,1.28-.7,1.28A1.21,1.21,0,0,1,11.4,14l-.92-1.48c-.41-.74-.75-1.33-1-1.76h-.1c-.27.49-.58,1.08-.91,1.76L7.65,14A1.13,1.13,0,0,1,6.57,14.63Z"/>
</svg>
